{"glyphs":{"0":{"ha":868,"x_min":0,"x_max":692,"o":"m 208 971 l 478 971 l 692 692 l 692 293 q 478 0 692 269 l 208 0 q 0 293 0 271 l 0 683 q 208 971 0 704 m 97 660 l 97 315 l 256 103 l 436 103 l 590 321 l 590 660 l 432 868 l 260 868 l 97 660 z "},"1":{"ha":835,"x_min":88,"x_max":604,"o":"m 260 972 l 385 972 l 394 963 l 394 103 l 594 103 l 604 93 l 604 10 l 594 0 l 97 0 l 88 10 l 88 93 l 97 103 l 292 103 l 292 865 l 115 693 l 97 693 l 88 703 l 88 800 q 260 972 146 872 z "},"2":{"ha":868,"x_min":-1,"x_max":692,"o":"m 213 972 l 482 972 l 692 763 l 692 563 l 157 103 l 682 103 l 692 93 l 692 10 l 682 0 l 8 0 l -1 10 l -1 97 l 594 610 l 594 721 l 440 869 l 250 869 q 101 711 101 732 q 92 693 101 693 l 8 693 l -1 703 l -1 763 l 213 972 z "},"3":{"ha":867,"x_min":7,"x_max":700,"o":"m 17 972 l 690 972 l 700 963 l 700 833 l 454 582 l 700 335 l 700 144 q 561 0 700 133 l 151 0 l 7 144 l 7 275 l 17 283 l 100 283 l 110 275 l 110 186 l 189 103 l 518 103 l 603 186 l 603 293 l 318 582 l 318 586 l 597 869 l 17 869 l 7 879 l 7 963 l 17 972 z "},"4":{"ha":871,"x_min":-1,"x_max":692,"o":"m 417 972 l 617 972 l 626 963 l 626 382 l 682 382 l 692 372 l 692 289 l 682 279 l 626 279 l 626 10 l 617 0 l 533 0 l 524 10 l 524 279 l 8 279 l -1 289 l -1 404 q 203 689 -1 425 q 417 972 400 960 m 460 869 l 101 382 l 524 382 l 524 869 l 460 869 z "},"5":{"ha":871,"x_min":7,"x_max":700,"o":"m 17 972 l 597 972 l 607 963 l 607 879 l 597 869 l 110 869 l 110 661 l 510 661 q 700 469 610 574 l 700 196 q 510 0 640 124 l 197 0 q 7 196 50 142 l 7 275 l 17 283 l 100 283 l 110 275 l 110 232 l 239 103 l 472 103 l 603 232 l 603 432 l 472 563 l 17 563 l 7 572 l 7 963 l 17 972 z "},"6":{"ha":868,"x_min":1,"x_max":694,"o":"m 350 972 l 457 972 l 229 558 l 504 558 l 694 368 l 694 196 q 504 0 635 124 l 192 0 q 1 196 44 142 l 1 358 q 350 972 7 392 m 164 456 l 104 331 l 104 232 l 233 103 l 463 103 l 592 232 l 592 325 l 463 456 l 164 456 z "},"7":{"ha":868,"x_min":0,"x_max":694,"o":"m 10 975 l 686 975 l 694 965 l 694 844 q 164 0 688 810 l 51 0 l 51 10 l 593 868 l 593 872 l 10 872 l 0 882 l 0 965 l 10 975 z "},"8":{"ha":872,"x_min":-3,"x_max":692,"o":"m 189 975 l 501 975 l 692 783 l 692 611 l 575 485 l 692 368 l 692 196 q 501 0 632 125 l 189 0 q -3 196 40 142 l -3 368 l 114 490 l -3 611 l -3 783 l 189 975 m 100 742 l 100 649 l 207 542 l 482 542 l 590 649 l 590 742 l 460 872 l 231 872 l 100 742 m 100 326 l 100 233 l 231 103 l 460 103 l 590 233 l 590 326 l 482 439 l 207 439 l 100 326 z "},"9":{"ha":871,"x_min":1,"x_max":694,"o":"m 346 -1 l 239 -1 l 467 413 l 192 413 l 1 603 l 1 775 q 192 971 61 847 l 504 971 q 694 775 651 829 l 694 613 q 346 -1 689 579 m 532 515 l 592 640 l 592 739 l 463 868 l 233 868 l 104 739 l 104 646 l 233 515 l 532 515 z "}," ":{"ha":558,"x_min":0,"x_max":0,"o":""}," ":{"ha":558,"x_min":0,"x_max":0,"o":""},"$":{"ha":757,"x_min":-6,"x_max":624,"o":"m 369 139 l 369 -54 l 235 -54 l 235 139 l 3 139 l -6 147 l -6 276 l 3 285 l 426 285 l 482 340 l 482 361 l 426 418 l 140 418 l -6 558 l -6 696 l 140 838 l 235 838 l 235 1035 l 369 1035 l 369 838 l 546 838 l 554 829 l 554 704 l 546 696 l 196 696 l 140 636 l 140 619 l 196 558 l 482 558 l 624 418 l 624 285 l 482 139 l 369 139 z "},"&":{"ha":835,"x_min":0,"x_max":693,"o":"m 146 979 l 347 979 l 464 867 l 464 731 l 286 553 q 488 286 431 369 l 624 417 l 632 417 l 693 356 l 693 351 l 553 206 l 693 10 l 693 0 l 576 0 q 482 131 549 26 l 347 0 l 146 0 l 0 146 l 0 407 l 154 567 l 28 731 l 28 867 l 146 979 m 131 825 l 131 764 l 229 638 l 361 774 l 361 825 l 310 876 l 183 876 l 131 825 m 103 365 l 103 188 l 183 103 l 310 103 l 417 211 l 221 482 l 103 365 z "},"'":{"ha":388,"x_min":0,"x_max":203,"o":"m 99 786 l 11 786 l 0 797 l 0 964 l 11 975 l 190 975 l 203 964 l 203 797 l 143 590 l 43 590 l 99 786 z "},"(":{"ha":647,"x_min":142,"x_max":463,"o":"m 356 971 l 463 971 q 244 594 463 958 l 244 386 q 463 4 244 374 l 463 0 l 356 0 q 142 363 142 340 l 142 613 q 356 971 142 636 z "},")":{"ha":693,"x_min":142,"x_max":463,"o":"m 249 971 q 463 613 463 636 l 463 363 q 249 0 463 340 l 142 0 l 142 4 q 360 386 360 374 l 360 594 q 142 971 142 958 l 249 971 z "},"*":{"ha":831,"x_min":57,"x_max":638,"o":"m 281 968 l 410 968 l 418 961 l 418 785 l 590 843 l 638 710 q 465 651 638 703 l 465 643 l 567 506 l 567 494 l 461 419 l 453 419 q 347 565 369 522 l 343 565 l 246 419 l 233 419 l 128 494 l 128 506 l 225 643 l 225 651 q 57 710 63 701 q 104 843 96 835 l 272 785 l 272 961 l 281 968 z "},"+":{"ha":972,"x_min":140,"x_max":692,"o":"m 344 418 l 140 418 l 140 558 l 344 558 l 344 765 l 483 765 l 483 558 l 692 558 l 692 418 l 483 418 l 483 211 l 344 211 l 344 418 z "},",":{"ha":553,"x_min":138,"x_max":306,"o":"m 221 0 l 138 0 l 138 164 l 306 164 l 306 0 l 222 -179 l 138 -179 l 221 0 z "},"-":{"ha":696,"x_min":6,"x_max":557,"o":"m 6 415 l 6 553 l 557 553 l 557 415 l 6 415 z "},".":{"ha":553,"x_min":111,"x_max":296,"o":"m 122 179 l 285 179 l 296 168 l 296 10 l 285 0 l 122 0 l 111 10 l 111 168 l 122 179 z "},"/":{"ha":972,"x_min":42,"x_max":710,"o":"m 42 -85 l 597 1044 l 710 1044 l 154 -85 l 42 -85 z "},":":{"ha":610,"x_min":136,"x_max":340,"o":"m 147 842 l 328 842 l 340 831 l 340 658 l 328 647 l 147 647 l 136 658 l 136 831 l 147 842 m 149 329 l 328 329 l 340 318 l 340 151 l 328 140 l 149 140 l 138 151 l 138 318 l 149 329 z "},";":{"ha":415,"x_min":136,"x_max":340,"o":"m 147 842 l 328 842 l 340 831 l 340 658 l 328 647 l 147 647 l 136 658 l 136 831 l 147 842 m 236 140 l 149 140 l 138 151 l 138 318 l 149 329 l 328 329 l 340 318 l 340 151 l 281 -56 l 181 -56 l 236 140 z "},"<":{"ha":831,"x_min":0,"x_max":594,"o":"m 414 972 l 594 972 l 594 968 l 181 485 l 594 4 l 594 0 l 414 0 l 0 485 l 0 488 l 414 972 z "},"=":{"ha":974,"x_min":139,"x_max":697,"o":"m 140 254 l 140 386 l 692 386 l 692 254 l 140 254 m 139 585 l 139 721 l 697 721 l 697 585 l 139 585 z "},">":{"ha":835,"x_min":56,"x_max":650,"o":"m 236 0 l 56 0 l 56 4 l 469 488 l 56 968 l 56 972 l 236 972 l 650 488 l 650 485 l 236 0 z "},"?":{"ha":900,"x_min":56,"x_max":754,"o":"m 247 979 l 561 979 l 754 788 l 754 594 l 458 290 l 458 249 l 449 239 l 365 239 l 356 249 l 356 332 l 656 638 l 656 744 l 524 876 l 290 876 q 158 736 158 756 q 149 699 158 699 l 65 699 l 56 707 l 56 788 l 247 979 m 365 146 l 449 146 l 458 136 l 458 10 l 449 0 l 365 0 l 356 10 l 356 136 l 365 146 z "},"@":{"ha":838,"x_min":6,"x_max":701,"o":"m 215 976 l 510 976 l 701 785 l 701 290 l 692 281 l 383 281 l 281 383 l 281 599 l 383 701 l 599 701 l 599 743 l 468 874 l 258 874 l 108 724 l 108 257 l 258 103 l 692 103 l 701 93 l 701 10 l 692 0 l 215 0 l 6 215 l 6 767 l 215 976 m 383 556 l 383 421 l 426 383 l 599 383 l 599 599 l 426 599 l 383 556 z "},"A":{"ha":871,"x_min":-1,"x_max":699,"o":"m 283 971 l 414 971 q 699 407 461 907 l 699 11 l 689 1 l 604 1 l 596 11 l 596 296 l 101 296 l 101 11 l 92 1 l 8 1 l -1 11 l -1 411 q 283 971 222 886 m 101 397 l 590 397 l 590 403 l 349 874 l 343 874 q 101 397 335 868 z "},"B":{"ha":871,"x_min":-1,"x_max":693,"o":"m 8 971 l 503 971 q 693 781 604 883 l 693 607 l 576 482 q 693 365 618 456 l 693 193 q 503 1 606 92 l 8 1 l -1 11 l -1 90 l 8 99 l 68 99 l 68 874 l 8 874 l -1 882 l -1 963 l 8 971 m 171 874 l 171 538 l 483 538 l 596 644 l 596 743 l 465 874 l 171 874 m 171 435 l 171 99 l 465 99 l 596 229 l 596 328 l 483 435 l 171 435 z "},"C":{"ha":871,"x_min":-1,"x_max":693,"o":"m 213 971 l 483 971 q 693 761 579 890 l 693 701 l 685 692 l 604 692 q 590 729 596 692 l 442 874 l 250 874 l 101 719 l 101 253 l 250 99 l 442 99 q 596 263 596 242 q 604 281 596 281 l 685 281 l 693 272 l 693 211 q 483 1 583 86 l 213 1 q -1 211 154 50 l -1 761 q 213 971 154 922 z "},"D":{"ha":871,"x_min":0,"x_max":696,"o":"m 10 972 l 486 972 q 696 682 696 704 l 696 290 q 486 0 696 268 l 10 0 l 0 10 l 0 89 l 10 99 l 69 99 l 69 874 l 10 874 l 0 883 l 0 963 l 10 972 m 174 874 l 174 99 l 439 99 l 599 313 l 599 660 l 439 874 l 174 874 z "},"E":{"ha":810,"x_min":0,"x_max":613,"o":"m 10 972 l 604 972 l 613 963 l 613 883 l 604 874 l 103 874 l 103 538 l 533 538 l 543 528 l 543 444 l 533 435 l 103 435 l 103 99 l 604 99 l 613 89 l 613 10 l 604 0 l 10 0 l 0 10 l 0 963 l 10 972 z "},"F":{"ha":833,"x_min":-1,"x_max":611,"o":"m 8 972 l 603 972 l 611 963 l 611 883 l 603 874 l 101 874 l 101 538 l 532 538 l 542 528 l 542 444 l 532 435 l 101 435 l 101 10 l 92 0 l 8 0 l -1 10 l -1 963 l 8 972 z "},"G":{"ha":871,"x_min":1,"x_max":697,"o":"m 211 972 l 488 972 l 697 763 l 697 701 l 689 692 l 604 692 q 590 729 594 692 l 446 874 l 254 874 l 104 719 l 104 253 l 254 99 l 446 99 l 594 253 l 594 360 l 357 360 l 347 369 l 347 453 l 357 463 l 689 463 l 697 453 l 697 210 l 488 0 l 211 0 l 1 210 l 1 763 l 211 972 z "},"H":{"ha":871,"x_min":0,"x_max":696,"o":"m 10 972 l 93 972 l 103 963 l 103 538 l 593 538 l 593 963 l 603 972 l 688 972 l 696 963 l 696 10 l 688 0 l 603 0 l 593 10 l 593 435 l 103 435 l 103 10 l 93 0 l 10 0 l 0 10 l 0 963 l 10 972 z "},"I":{"ha":693,"x_min":65,"x_max":486,"o":"m 75 972 l 476 972 l 486 963 l 486 883 l 476 874 l 326 874 l 326 99 l 476 99 l 486 89 l 486 10 l 476 0 l 75 0 l 65 10 l 65 89 l 75 99 l 229 99 l 229 874 l 75 874 l 65 883 l 65 963 l 75 972 z "},"J":{"ha":871,"x_min":0,"x_max":696,"o":"m 328 972 l 688 972 l 696 963 l 696 883 l 688 874 l 556 874 l 556 140 l 417 0 l 140 0 l 0 140 l 0 411 l 10 421 l 89 421 l 99 411 l 99 182 l 182 99 l 374 99 l 458 182 l 458 874 l 328 874 l 318 883 l 318 963 l 328 972 z "},"K":{"ha":871,"x_min":0,"x_max":692,"o":"m 10 972 l 89 972 l 99 963 l 99 538 l 192 538 l 571 972 l 692 972 l 692 968 l 281 482 q 692 4 429 319 l 692 0 l 571 0 l 192 435 l 99 435 l 99 10 l 89 0 l 10 0 l 0 10 l 0 963 l 10 972 z "},"L":{"ha":814,"x_min":-1,"x_max":611,"o":"m 8 972 l 88 972 l 97 963 l 97 99 l 603 99 l 611 89 l 611 10 l 603 0 l 8 0 l -1 10 l -1 963 l 8 972 z "},"M":{"ha":871,"x_min":-4,"x_max":699,"o":"m 6 975 l 94 975 q 347 544 121 944 l 353 544 q 600 975 474 774 l 690 975 l 699 965 l 699 10 l 690 0 l 606 0 l 596 10 l 596 769 l 592 769 q 390 417 401 424 l 310 417 q 104 769 285 446 l 99 769 l 99 10 l 90 0 l 6 0 l -4 10 l -4 965 l 6 975 z "},"N":{"ha":871,"x_min":-4,"x_max":699,"o":"m 6 975 l 94 975 l 596 197 l 596 965 l 606 975 l 690 975 l 699 965 l 699 10 l 690 0 l 600 0 l 99 778 l 99 10 l 90 0 l 6 0 l -4 10 l -4 965 l 6 975 z "},"O":{"ha":871,"x_min":-3,"x_max":700,"o":"m 213 975 l 485 975 q 700 764 544 926 l 700 211 q 485 0 544 49 l 213 0 q -3 211 153 49 l -3 764 q 213 975 153 926 m 100 722 l 100 253 l 250 99 l 447 99 l 597 253 l 597 722 l 447 876 l 250 876 l 100 722 z "},"P":{"ha":871,"x_min":-8,"x_max":696,"o":"m 1 976 l 499 976 q 696 783 571 915 l 696 610 q 499 418 571 479 l 94 418 l 94 10 l 86 0 l 1 0 l -8 10 l -8 967 l 1 976 m 94 878 l 94 517 l 461 517 l 593 647 l 593 746 l 461 878 l 94 878 z "},"Q":{"ha":871,"x_min":-7,"x_max":693,"o":"m 208 976 l 482 976 q 693 765 578 894 l 693 329 l 565 201 l 688 10 l 688 0 l 579 0 q 496 126 496 114 l 364 0 l 208 0 q -7 211 149 49 l -7 765 q 208 976 149 928 m 96 722 l 96 254 l 247 99 l 322 99 q 435 207 421 207 l 299 413 l 299 422 l 411 422 q 504 282 418 422 l 594 371 l 594 722 l 439 878 l 247 878 l 96 722 z "},"R":{"ha":871,"x_min":-4,"x_max":696,"o":"m 6 976 l 503 976 q 696 783 604 889 l 696 610 l 513 418 l 696 4 l 690 0 l 597 0 q 475 258 575 17 l 394 418 l 99 418 l 99 10 l 90 0 l 6 0 l -4 10 l -4 967 l 6 976 m 99 878 l 99 517 l 465 517 l 597 647 l 597 746 l 465 878 l 99 878 z "},"S":{"ha":871,"x_min":0,"x_max":696,"o":"m 192 972 l 504 972 q 696 781 607 885 l 696 701 l 688 692 l 608 692 l 599 701 l 599 743 l 468 874 l 233 874 l 103 743 l 103 668 l 233 538 l 504 538 l 696 346 l 696 192 q 504 0 608 90 l 192 0 q 0 192 83 93 l 0 271 l 10 281 l 93 281 l 103 271 l 103 229 l 233 99 l 468 99 l 599 229 l 599 304 l 468 435 l 192 435 l 0 626 l 0 781 q 192 972 85 879 z "},"T":{"ha":871,"x_min":0,"x_max":696,"o":"m 10 972 l 688 972 l 696 963 l 696 883 l 688 874 l 401 874 l 401 10 l 393 0 l 308 0 l 299 10 l 299 874 l 10 874 l 0 883 l 0 963 l 10 972 z "},"U":{"ha":868,"x_min":-1,"x_max":694,"o":"m 8 972 l 92 972 l 101 963 l 101 253 l 251 99 l 443 99 l 592 253 l 592 963 l 601 972 l 686 972 l 694 963 l 694 210 l 485 0 l 208 0 l -1 210 l -1 963 l 8 972 z "},"V":{"ha":868,"x_min":0,"x_max":697,"o":"m 10 972 l 93 972 l 103 963 l 103 585 q 342 99 103 571 l 350 99 q 594 585 363 99 l 594 963 l 603 972 l 688 972 l 697 963 l 697 565 q 411 0 428 0 l 281 0 q 0 561 269 0 l 0 963 l 10 972 z "},"W":{"ha":871,"x_min":-1,"x_max":696,"o":"m 8 972 l 92 972 l 101 963 l 101 308 l 143 107 l 153 107 l 297 411 l 297 688 l 307 697 l 386 697 l 396 688 l 396 411 l 542 107 l 550 107 l 593 308 l 593 963 l 601 972 l 686 972 l 696 963 l 696 299 q 615 0 635 0 l 489 0 q 349 276 481 0 l 344 276 q 204 0 214 0 l 78 0 q -1 299 60 0 l -1 963 l 8 972 z "},"X":{"ha":872,"x_min":1,"x_max":689,"o":"m 1 972 l 108 972 q 343 585 243 763 l 347 585 q 581 972 447 763 l 689 972 q 404 486 689 956 q 689 0 689 13 l 581 0 q 347 388 447 210 l 343 388 q 108 0 243 210 l 1 0 q 286 482 1 17 q 1 972 1 960 z "},"Y":{"ha":871,"x_min":0,"x_max":689,"o":"m 0 975 l 103 975 q 342 535 144 915 l 347 535 q 582 975 414 676 l 689 975 l 394 413 l 394 10 l 385 0 l 300 0 l 290 10 l 290 408 q 0 965 264 472 l 0 975 z "},"Z":{"ha":871,"x_min":-3,"x_max":696,"o":"m 7 975 l 686 975 l 696 965 l 696 890 q 560 694 696 874 l 124 103 l 124 99 l 686 99 l 696 89 l 696 10 l 686 0 l 7 0 l -3 10 l -3 85 q 171 333 -3 103 l 564 872 l 564 876 l 7 876 l -3 886 l -3 965 l 7 975 z "},"[":{"ha":418,"x_min":-3,"x_max":558,"o":"m 7 1251 l 549 1251 l 558 1242 l 558 1158 l 549 1149 l 100 1149 l 100 -178 l 549 -178 l 558 -187 l 558 -267 l 549 -276 l 7 -276 l -3 -267 l -3 1242 l 7 1251 z "},"\\":{"ha":967,"x_min":42,"x_max":710,"o":"m 597 -85 l 42 1044 l 154 1044 l 710 -85 l 597 -85 z "},"]":{"ha":328,"x_min":-283,"x_max":278,"o":"m 278 1242 l 278 -267 l 268 -276 l -274 -276 l -283 -267 l -283 -187 l -274 -178 l 175 -178 l 175 1149 l -274 1149 l -283 1158 l -283 1242 l -274 1251 l 268 1251 l 278 1242 z "},"^":{"ha":826,"x_min":44,"x_max":608,"o":"m 324 972 l 326 972 q 608 693 447 860 l 608 690 l 532 614 l 529 614 l 324 813 l 124 614 l 121 614 l 44 690 l 44 693 l 324 972 z "},"_":{"ha":893,"x_min":6,"x_max":896,"o":"m 6 -228 l 6 -117 l 896 -117 l 896 -228 l 6 -228 z "},"`":{"ha":617,"x_min":1,"x_max":417,"o":"m 417 975 l 417 796 l 1 796 l 1 975 l 417 975 z "},"a":{"ha":836,"x_min":4,"x_max":704,"o":"m 154 700 l 493 700 l 638 558 l 638 150 l 704 0 l 596 0 q 539 108 586 0 l 535 108 l 422 0 l 150 0 l 4 146 l 4 276 l 150 422 l 535 422 l 535 517 l 450 596 l 154 596 l 144 606 l 144 690 l 154 700 m 107 239 l 107 183 l 192 103 l 385 103 l 535 254 l 535 319 l 192 319 l 107 239 z "},"b":{"ha":767,"x_min":7,"x_max":638,"o":"m 17 976 l 101 976 l 110 967 l 110 700 l 444 700 q 638 408 638 431 l 638 292 q 444 0 638 268 l 17 0 l 7 10 l 7 967 l 17 976 m 110 596 l 110 103 l 397 103 l 539 314 l 539 375 q 397 592 539 392 l 397 596 l 110 596 z "},"c":{"ha":697,"x_min":-4,"x_max":557,"o":"m 189 700 l 547 700 l 557 690 l 557 606 l 547 596 l 235 596 q 99 375 99 388 l 99 324 q 235 103 99 311 l 547 103 l 557 94 l 557 10 l 547 0 l 189 0 q -4 292 -4 268 l -4 408 q 189 700 -4 431 z "},"d":{"ha":767,"x_min":7,"x_max":638,"o":"m 638 967 l 638 10 l 628 0 l 200 0 q 7 292 7 268 l 7 408 q 200 700 7 431 l 533 700 l 533 967 l 543 976 l 628 976 l 638 967 m 246 596 l 246 592 q 106 375 106 392 l 106 314 l 246 103 l 533 103 l 533 596 l 246 596 z "},"e":{"ha":763,"x_min":-1,"x_max":632,"o":"m 192 696 l 438 696 l 632 486 l 632 308 l 622 299 l 103 299 l 103 247 l 235 103 l 554 103 l 564 93 l 564 8 l 554 0 l 192 0 l -1 210 l -1 486 l 192 696 m 103 449 l 103 397 l 532 397 l 532 449 l 396 593 l 235 593 l 103 449 z "},"f":{"ha":635,"x_min":6,"x_max":497,"o":"m 340 972 l 488 972 l 497 963 l 497 883 l 488 874 l 382 874 l 246 725 l 246 561 l 446 561 l 456 551 l 456 467 l 446 458 l 246 458 l 246 8 l 236 0 l 151 0 l 142 8 l 142 458 l 15 458 l 6 467 l 6 551 l 15 561 l 142 561 l 142 761 q 340 972 211 844 z "},"g":{"ha":764,"x_min":-4,"x_max":629,"o":"m 189 696 l 619 696 l 629 688 l 629 -135 l 488 -276 l 147 -276 l 138 -267 l 138 -187 l 147 -178 l 444 -178 l 525 -93 l 525 0 l 189 0 q -4 289 -4 267 l -4 407 q 189 696 -4 429 m 236 593 q 100 374 100 386 l 100 322 q 236 103 100 310 l 525 103 l 525 593 l 236 593 z "},"h":{"ha":694,"x_min":0,"x_max":561,"o":"m 10 976 l 94 976 l 103 967 l 103 700 l 396 700 q 561 450 561 472 l 561 10 l 551 0 l 467 0 l 457 10 l 457 417 q 349 596 457 429 l 103 596 l 103 10 l 94 0 l 10 0 l 0 10 l 0 967 l 10 976 z "},"i":{"ha":557,"x_min":42,"x_max":422,"o":"m 192 976 l 276 976 l 286 967 l 286 844 l 276 836 l 192 836 l 182 844 l 182 967 l 192 976 m 51 700 l 276 700 l 286 690 l 286 103 l 413 103 l 422 94 l 422 10 l 413 0 l 51 0 l 42 10 l 42 94 l 51 103 l 182 103 l 182 596 l 51 596 l 42 606 l 42 690 l 51 700 z "},"j":{"ha":615,"x_min":0,"x_max":451,"o":"m 357 972 l 442 972 l 451 963 l 451 840 l 442 831 l 357 831 l 347 840 l 347 963 l 357 972 m 176 696 l 442 696 l 451 686 l 451 -75 q 257 -289 375 -169 l 10 -289 l 0 -279 l 0 -199 l 10 -189 l 215 -189 l 347 -37 l 347 592 l 176 592 l 168 601 l 168 686 l 176 696 z "},"k":{"ha":767,"x_min":6,"x_max":621,"o":"m 15 972 l 96 972 l 104 963 l 104 419 l 149 419 l 428 693 l 569 693 l 569 689 l 247 363 l 621 -4 l 621 -10 l 479 -10 l 149 315 l 104 315 l 104 0 l 96 -10 l 15 -10 l 6 0 l 6 963 l 15 972 z "},"l":{"ha":611,"x_min":54,"x_max":436,"o":"m 64 972 l 290 972 l 300 963 l 300 93 l 428 93 l 436 85 l 436 0 l 428 -10 l 64 -10 l 54 0 l 54 85 l 64 93 l 196 93 l 196 874 l 64 874 l 54 882 l 54 963 l 64 972 z "},"m":{"ha":872,"x_min":0,"x_max":728,"o":"m 10 696 l 611 696 q 728 463 622 696 l 728 10 l 719 0 l 635 0 l 625 10 l 625 439 l 556 593 l 415 593 l 415 10 l 406 0 l 322 0 l 313 10 l 313 593 l 103 593 l 103 10 l 93 0 l 10 0 l 0 10 l 0 686 l 10 696 z "},"n":{"ha":689,"x_min":-1,"x_max":560,"o":"m 8 696 l 397 696 q 560 449 560 471 l 560 10 l 551 0 l 467 0 l 457 10 l 457 415 q 350 593 457 428 l 101 593 l 101 10 l 92 0 l 8 0 l -1 10 l -1 686 l 8 696 z "},"o":{"ha":810,"x_min":-3,"x_max":669,"o":"m 189 696 l 474 696 q 669 407 665 439 l 669 289 q 474 0 665 257 l 189 0 q -3 289 -3 267 l -3 407 q 189 696 -3 429 m 240 593 q 100 374 100 388 l 100 322 q 240 103 100 308 l 428 103 q 567 322 567 308 l 567 374 q 428 593 567 388 l 240 593 z "},"p":{"ha":767,"x_min":7,"x_max":638,"o":"m 7 -268 l 7 689 l 17 699 l 444 699 q 638 407 638 431 l 638 290 q 444 -1 638 268 l 110 -1 l 110 -268 l 101 -278 l 17 -278 l 7 -268 m 397 103 l 397 107 q 539 324 539 307 l 539 385 l 397 596 l 110 596 l 110 103 l 397 103 z "},"q":{"ha":769,"x_min":7,"x_max":638,"o":"m 628 -278 l 543 -278 l 535 -268 l 535 -1 l 200 -1 q 7 290 7 268 l 7 407 q 200 699 7 431 l 628 699 l 638 689 l 638 -268 l 628 -278 m 535 103 l 535 596 l 247 596 l 106 385 l 106 324 q 247 107 106 307 l 247 103 l 535 103 z "},"r":{"ha":694,"x_min":29,"x_max":538,"o":"m 39 700 l 124 700 l 132 690 l 132 564 l 138 564 q 353 700 335 700 l 528 700 l 538 690 l 538 606 l 528 597 l 381 597 q 132 442 369 597 l 132 10 l 124 0 l 39 0 l 29 10 l 29 690 l 39 700 z "},"s":{"ha":778,"x_min":0,"x_max":626,"o":"m 144 696 l 547 696 l 557 686 l 557 603 l 547 593 l 182 593 l 103 514 l 103 481 l 182 397 l 486 397 l 626 257 l 626 144 l 486 0 l 10 0 l 0 10 l 0 93 l 10 103 l 444 103 l 528 182 l 528 215 l 444 299 l 144 299 q 0 439 58 374 l 0 556 l 144 696 z "},"t":{"ha":736,"x_min":-1,"x_max":558,"o":"m 149 971 l 228 971 l 236 961 l 236 696 l 508 696 l 517 686 l 517 603 l 508 593 l 236 593 l 236 247 l 372 103 l 550 103 l 558 93 l 558 10 l 550 0 l 331 0 l 139 210 l 139 593 l 8 593 l -1 603 l -1 686 l 8 696 l 139 696 l 139 961 l 149 971 z "},"u":{"ha":764,"x_min":-4,"x_max":631,"o":"m 6 696 l 89 696 l 99 686 l 99 247 l 229 103 l 314 103 l 468 251 l 468 686 l 476 696 l 557 696 l 565 686 l 565 150 l 631 0 l 528 0 q 472 107 519 0 l 468 107 l 356 0 l 188 0 l -4 210 l -4 686 l 6 696 z "},"v":{"ha":793,"x_min":0,"x_max":667,"o":"m 97 694 q 275 233 113 694 q 336 103 328 106 l 564 694 l 657 694 l 663 690 l 667 690 l 401 0 l 271 0 q 103 406 256 0 l 0 690 l 4 694 l 97 694 z "},"w":{"ha":843,"x_min":10,"x_max":704,"o":"m 19 694 l 103 694 l 113 685 l 113 182 l 188 107 l 303 560 l 406 560 q 513 149 421 560 l 522 113 l 526 107 l 532 107 l 601 182 l 601 685 l 611 694 l 694 694 l 704 685 l 704 144 l 560 0 l 457 0 q 382 271 440 0 q 360 364 376 271 l 354 364 q 257 0 271 0 l 150 0 q 10 144 10 133 l 10 685 l 19 694 z "},"x":{"ha":800,"x_min":-3,"x_max":654,"o":"m -3 694 l 118 694 l 328 424 l 533 694 l 654 694 l 654 690 l 389 344 q 654 4 461 253 l 654 0 l 533 0 l 324 271 l 118 0 l -3 0 l -3 4 l 258 350 q -3 694 -3 679 z "},"y":{"ha":842,"x_min":0,"x_max":699,"o":"m 99 697 q 290 233 114 697 q 351 101 343 106 l 596 697 l 689 697 l 694 693 l 699 693 l 310 -272 l 304 -278 l 10 -278 l 0 -268 l 0 -187 l 10 -179 l 235 -179 q 310 0 246 -168 q 267 32 267 0 l 0 693 l 4 697 l 99 697 z "},"z":{"ha":689,"x_min":1,"x_max":561,"o":"m 11 697 l 551 697 l 561 688 l 561 599 l 138 101 l 551 101 l 561 93 l 561 8 l 551 0 l 11 0 l 1 8 l 1 97 l 421 594 l 11 594 l 1 604 l 1 688 l 11 697 z "},"{":{"ha":657,"x_min":-4,"x_max":514,"o":"m 374 1250 l 506 1250 l 514 1240 l 514 1157 l 506 1147 l 417 1147 l 263 997 l 263 619 l 132 483 l 263 349 l 263 -25 l 417 -179 l 506 -179 l 514 -189 l 514 -268 l 506 -278 l 374 -278 q 164 -67 265 -182 l 164 311 q -4 483 79 389 l -4 489 l 164 661 l 164 1035 q 374 1250 224 1106 z "},"|":{"ha":421,"x_min":140,"x_max":239,"o":"m 239 1178 l 239 -200 l 140 -200 l 140 1178 l 239 1178 z "},"}":{"ha":692,"x_min":-4,"x_max":514,"o":"m 136 1250 q 346 1035 286 1106 l 346 661 l 514 489 l 514 483 q 346 311 431 389 l 346 -67 q 136 -278 246 -182 l 6 -278 l -4 -268 l -4 -189 l 6 -179 l 94 -179 l 249 -25 l 249 349 l 379 483 l 249 619 l 249 997 l 94 1147 l 6 1147 l -4 1157 l -4 1240 l 6 1250 l 136 1250 z "},"~":{"ha":833,"x_min":-3,"x_max":831,"o":"m 208 681 l 617 444 l 828 564 l 831 560 l 831 411 q 617 286 831 396 l 204 518 l 1 403 l -3 407 l -3 556 q 208 681 -3 568 z "},"¨":{"ha":696,"x_min":158,"x_max":575,"o":"m 289 949 q 270 919 289 932 q 232 907 251 907 l 215 907 q 177 919 196 907 q 158 949 158 932 l 158 1001 q 177 1030 158 1018 q 215 1042 196 1042 l 232 1042 q 270 1030 251 1042 q 289 1001 289 1018 l 289 949 m 575 949 q 557 919 575 932 q 519 907 539 907 l 501 907 q 463 919 482 907 q 444 949 444 932 l 444 1001 q 463 1030 444 1018 q 501 1042 482 1042 l 519 1042 q 557 1030 539 1042 q 575 1001 575 1018 l 575 949 z "},"°":{"ha":836,"x_min":140,"x_max":558,"o":"m 265 969 l 433 969 l 558 844 l 558 676 l 433 551 l 265 551 l 140 676 l 140 844 l 265 969 m 229 811 l 229 708 l 299 639 l 396 639 l 471 708 l 471 811 l 396 881 l 299 881 l 229 811 z "},"–":{"ha":969,"x_min":6,"x_max":904,"o":"m 6 419 l 6 553 l 904 553 l 904 419 l 6 419 z "},"•":{"ha":701,"x_min":138,"x_max":417,"o":"m 138 279 l 138 553 l 417 553 l 417 279 l 138 279 z "},"#":{"ha":1096,"x_min":14,"x_max":903,"o":"m 525 976 l 528 972 l 532 972 l 469 771 l 603 771 q 657 953 611 771 l 665 972 l 668 976 l 801 976 l 804 972 l 808 972 l 750 771 l 896 771 l 899 767 l 903 767 q 857 626 867 626 l 715 626 q 629 350 707 622 l 779 350 l 782 346 l 786 346 q 736 210 746 210 l 594 210 q 544 39 586 210 q 525 0 533 0 l 396 0 l 392 4 l 389 4 l 447 210 l 314 210 q 264 39 306 210 q 244 0 253 0 l 117 0 l 113 4 l 108 4 l 171 210 l 22 210 l 18 214 l 14 214 q 61 350 50 350 l 206 350 q 288 626 214 356 l 142 626 l 139 631 l 135 631 q 181 771 171 771 l 322 771 q 389 972 333 785 l 392 976 l 525 976 m 325 350 l 454 350 q 540 626 461 356 l 407 626 q 325 350 400 624 z "},"!":{"ha":625,"x_min":167,"x_max":349,"o":"m 340 976 l 344 972 l 349 972 l 303 281 l 218 281 q 167 972 201 281 l 171 976 l 340 976 m 218 144 l 297 144 l 307 136 l 307 10 l 297 0 l 218 0 l 208 10 l 208 136 l 218 144 z "},"\"":{"ha":715,"x_min":0,"x_max":540,"o":"m 99 786 l 11 786 l 0 797 l 0 964 l 11 975 l 190 975 l 203 964 l 203 797 l 143 590 l 43 590 l 99 786 m 436 788 l 349 788 l 338 799 l 338 965 l 349 976 l 528 976 l 540 965 l 540 799 l 481 592 l 381 592 l 436 788 z "},"±":{"ha":968,"x_min":140,"x_max":694,"o":"m 143 74 l 143 214 l 694 214 l 694 74 l 143 74 m 344 557 l 140 557 l 140 697 l 344 697 l 344 904 l 483 904 l 483 697 l 692 697 l 692 557 l 483 557 l 483 350 l 344 350 l 344 557 z "},"%":{"ha":835,"x_min":0,"x_max":697,"o":"m 103 972 l 228 972 l 331 875 l 331 744 l 228 647 l 103 647 l 0 744 l 0 875 l 103 972 m 582 972 l 693 972 q 111 0 693 951 l 4 0 q 400 675 4 14 l 582 972 m 89 838 l 89 776 l 135 731 l 196 731 l 242 776 l 242 838 l 196 883 l 135 883 l 89 838 m 465 331 l 596 331 l 697 232 l 697 103 l 596 0 l 465 0 l 368 103 l 368 232 l 465 331 m 456 196 l 456 135 l 503 89 l 568 89 q 610 135 568 99 l 610 196 l 563 242 l 503 242 l 456 196 z "},"Ø":{"ha":0,"x_min":56,"x_max":879,"o":"m 760 975 l 879 975 l 879 965 q 739 758 739 776 q 854 468 854 660 q 764 242 854 363 q 463 100 635 100 q 282 146 397 100 l 282 140 l 176 0 l 56 0 l 56 10 q 196 221 196 200 q 81 513 81 307 q 247 810 81 671 q 443 875 351 875 l 472 875 q 654 835 561 875 q 760 975 654 849 m 192 513 l 192 478 q 267 301 192 372 l 583 744 q 472 769 507 769 q 217 613 313 769 q 192 513 192 553 m 668 679 l 357 242 l 357 231 l 457 211 q 654 282 575 211 q 744 468 744 372 l 744 507 q 674 679 744 585 l 668 679 z "},"´":{"ha":0,"x_min":0,"x_max":203,"o":"m 99 786 l 11 786 l 0 797 l 0 964 l 11 975 l 190 975 l 203 964 l 203 797 l 143 590 l 43 590 l 99 786 z "}}}
